<svg xmlns="http://www.w3.org/2000/svg" xmlns:xlink="http://www.w3.org/1999/xlink" width="500" zoomAndPan="magnify" viewBox="0 0 375 374.999991" height="500" preserveAspectRatio="xMidYMid meet" version="1.0"><defs><clipPath id="94a89e0045"><path d="M 2 45 L 371.25 45 L 371.25 331.648438 L 2 331.648438 Z M 2 45 " clip-rule="nonzero"/></clipPath></defs><rect x="-37.5" width="450" fill="#ffffff" y="-37.499999" height="449.999989" fill-opacity="1"/><rect x="-37.5" width="450" fill="#ffffff" y="-37.499999" height="449.999989" fill-opacity="1"/><g clip-path="url(#94a89e0045)"><path fill="#1c74bb" d="M 247.953125 331.085938 C 223.683594 331.085938 202.710938 326.8125 185.042969 318.066406 C 188.730469 318.066406 195.332031 318.066406 195.332031 311.261719 C 195.332031 307.570312 192.226562 304.460938 188.539062 304.460938 L 140.191406 304.460938 C 131.257812 304.460938 131.257812 290.855469 140.191406 290.855469 L 202.324219 290.855469 C 211.253906 290.855469 211.253906 277.25 202.324219 277.25 C 174.75 277.25 147.375 277.25 119.800781 277.25 C 110.871094 277.25 110.871094 263.644531 119.800781 263.644531 L 172.617188 263.644531 C 181.546875 263.644531 181.546875 250.039062 172.617188 250.039062 C 150.867188 250.039062 129.121094 250.039062 107.570312 250.039062 C 98.636719 250.039062 98.636719 236.433594 107.570312 236.433594 L 139.21875 236.433594 C 148.152344 236.433594 148.152344 222.828125 139.21875 222.828125 L 125.042969 222.828125 C 116.695312 222.828125 114.753906 209.222656 126.402344 209.222656 C 133.585938 209.222656 140.964844 209.222656 148.152344 209.222656 C 157.082031 209.222656 157.082031 195.617188 148.152344 195.617188 L 115.917969 195.617188 C 106.988281 195.617188 106.988281 182.011719 115.917969 182.011719 L 138.832031 182.011719 C 147.761719 182.011719 147.761719 168.40625 138.832031 168.40625 L 109.898438 168.40625 C 100.96875 168.40625 100.96875 154.800781 109.898438 154.800781 L 166.402344 154.800781 C 175.335938 154.800781 175.335938 141.195312 166.402344 141.195312 C 146.015625 141.195312 125.628906 141.195312 105.238281 141.195312 C 96.308594 141.195312 96.308594 127.589844 105.238281 127.589844 L 127.957031 127.589844 C 136.890625 127.589844 136.695312 114.761719 129.121094 113.984375 L 104.269531 113.984375 C 95.335938 113.984375 95.335938 100.378906 104.269531 100.378906 L 151.0625 99.796875 C 162.128906 101.15625 161.9375 86.96875 154.167969 86.191406 L 126.792969 86.191406 C 117.859375 86.191406 117.859375 72.585938 126.792969 72.585938 C 137.277344 72.585938 120.382812 72.585938 130.871094 72.585938 C 139.800781 72.585938 139.605469 59.757812 132.035156 58.980469 C 125.433594 58.398438 112.8125 61.703125 112.8125 52.179688 C 112.8125 44.210938 121.742188 45.375 126.402344 45.375 C 146.984375 45.375 167.566406 45.375 188.148438 45.375 L 188.148438 204.558594 C 188.148438 246.539062 207.175781 274.140625 248.730469 274.140625 C 289.894531 274.140625 309.308594 248.289062 309.308594 206.695312 L 309.308594 45.375 L 371.25 45.375 L 371.25 204.167969 C 371.25 284.441406 328.339844 331.085938 247.953125 331.085938 Z M 9.125 127.007812 L 20 127.007812 C 28.929688 127.007812 28.929688 140.613281 20 140.613281 L 9.125 140.613281 C 0 140.613281 0 127.007812 9.125 127.007812 Z M 112.8125 290.855469 C 118.054688 290.855469 127.375 289.492188 127.375 297.65625 C 127.375 305.820312 118.054688 304.460938 112.8125 304.460938 C 103.6875 304.460938 103.6875 290.855469 112.8125 290.855469 Z M 47.960938 208.832031 L 103.6875 208.832031 C 112.617188 208.832031 112.617188 222.4375 103.6875 222.4375 L 47.960938 222.4375 C 38.832031 222.632812 38.832031 208.832031 47.960938 208.832031 Z M 92.617188 45.375 L 102.714844 45.375 C 111.648438 45.375 111.648438 58.980469 102.714844 58.980469 L 92.617188 58.980469 C 83.492188 59.175781 83.492188 45.375 92.617188 45.375 Z M 54.5625 99.601562 L 88.539062 99.601562 C 97.472656 99.601562 97.472656 113.207031 88.539062 113.207031 L 54.5625 113.207031 C 45.433594 113.402344 45.433594 99.601562 54.5625 99.601562 Z M 71.453125 154.21875 L 90.871094 154.21875 C 99.800781 154.21875 99.800781 167.824219 90.871094 167.824219 L 71.453125 167.824219 C 62.523438 167.824219 62.523438 154.21875 71.453125 154.21875 Z M 41.164062 127.007812 L 80.773438 127.007812 C 89.707031 127.007812 89.707031 140.613281 80.773438 140.613281 L 41.164062 140.613281 C 32.230469 140.613281 32.230469 127.007812 41.164062 127.007812 Z M 80.96875 236.238281 C 86.792969 236.238281 96.695312 234.683594 96.695312 243.042969 C 96.695312 251.398438 86.988281 249.84375 80.96875 249.84375 C 71.84375 249.84375 71.84375 236.238281 80.96875 236.238281 Z M 80.96875 236.238281 " fill-opacity="1" fill-rule="evenodd"/></g></svg>