<svg xmlns="http://www.w3.org/2000/svg" xmlns:xlink="http://www.w3.org/1999/xlink" width="500" zoomAndPan="magnify" viewBox="0 0 375 374.999991" height="500" preserveAspectRatio="xMidYMid meet" version="1.0"><defs><clipPath id="f20837d9e4"><path d="M 0 1.519531 L 86.25 1.519531 L 86.25 68.269531 L 0 68.269531 Z M 0 1.519531 " clip-rule="nonzero"/></clipPath></defs><g clip-path="url(#f20837d9e4)"><path fill="#1c74bb" d="M 57.605469 68.140625 C 51.964844 68.140625 47.09375 67.148438 42.988281 65.121094 C 43.847656 65.121094 45.378906 65.121094 45.378906 63.542969 C 45.378906 62.6875 44.660156 61.96875 43.800781 61.96875 L 32.570312 61.96875 C 30.496094 61.96875 30.496094 58.8125 32.570312 58.8125 L 47.003906 58.8125 C 49.078125 58.8125 49.078125 55.660156 47.003906 55.660156 C 40.597656 55.660156 34.238281 55.660156 27.832031 55.660156 C 25.757812 55.660156 25.757812 52.507812 27.832031 52.507812 L 40.101562 52.507812 C 42.175781 52.507812 42.175781 49.355469 40.101562 49.355469 C 35.050781 49.355469 29.996094 49.355469 24.992188 49.355469 C 22.914062 49.355469 22.914062 46.199219 24.992188 46.199219 L 32.34375 46.199219 C 34.417969 46.199219 34.417969 43.046875 32.34375 43.046875 L 29.050781 43.046875 C 27.109375 43.046875 26.660156 39.894531 29.367188 39.894531 C 31.035156 39.894531 32.75 39.894531 34.417969 39.894531 C 36.492188 39.894531 36.492188 36.742188 34.417969 36.742188 L 26.929688 36.742188 C 24.855469 36.742188 24.855469 33.585938 26.929688 33.585938 L 32.253906 33.585938 C 34.328125 33.585938 34.328125 30.433594 32.253906 30.433594 L 25.53125 30.433594 C 23.457031 30.433594 23.457031 27.28125 25.53125 27.28125 L 38.660156 27.28125 C 40.734375 27.28125 40.734375 24.128906 38.660156 24.128906 C 33.921875 24.128906 29.1875 24.128906 24.449219 24.128906 C 22.375 24.128906 22.375 20.972656 24.449219 20.972656 L 29.726562 20.972656 C 31.800781 20.972656 31.757812 18 29.996094 17.820312 L 24.222656 17.820312 C 22.148438 17.820312 22.148438 14.667969 24.222656 14.667969 L 35.09375 14.53125 C 37.667969 14.847656 37.621094 11.558594 35.816406 11.378906 L 29.457031 11.378906 C 27.382812 11.378906 27.382812 8.226562 29.457031 8.226562 C 31.894531 8.226562 27.96875 8.226562 30.402344 8.226562 C 32.480469 8.226562 32.433594 5.253906 30.675781 5.070312 C 29.140625 4.9375 26.207031 5.703125 26.207031 3.496094 C 26.207031 1.648438 28.285156 1.917969 29.367188 1.917969 C 34.148438 1.917969 38.929688 1.917969 43.710938 1.917969 L 43.710938 38.8125 C 43.710938 48.542969 48.132812 54.941406 57.785156 54.941406 C 67.347656 54.941406 71.859375 48.949219 71.859375 39.308594 L 71.859375 1.917969 L 86.25 1.917969 L 86.25 38.722656 C 86.25 57.328125 76.28125 68.140625 57.605469 68.140625 Z M 2.121094 20.839844 L 4.644531 20.839844 C 6.722656 20.839844 6.722656 23.992188 4.644531 23.992188 L 2.121094 23.992188 C 0 23.992188 0 20.839844 2.121094 20.839844 Z M 26.207031 58.8125 C 27.425781 58.8125 29.59375 58.5 29.59375 60.390625 C 29.59375 62.28125 27.425781 61.96875 26.207031 61.96875 C 24.089844 61.96875 24.089844 58.8125 26.207031 58.8125 Z M 11.140625 39.804688 L 24.089844 39.804688 C 26.164062 39.804688 26.164062 42.957031 24.089844 42.957031 L 11.140625 42.957031 C 9.023438 43.003906 9.023438 39.804688 11.140625 39.804688 Z M 21.515625 1.917969 L 23.863281 1.917969 C 25.9375 1.917969 25.9375 5.070312 23.863281 5.070312 L 21.515625 5.070312 C 19.398438 5.117188 19.398438 1.917969 21.515625 1.917969 Z M 12.675781 14.488281 L 20.570312 14.488281 C 22.644531 14.488281 22.644531 17.640625 20.570312 17.640625 L 12.675781 17.640625 C 10.554688 17.6875 10.554688 14.488281 12.675781 14.488281 Z M 16.601562 27.144531 L 21.113281 27.144531 C 23.1875 27.144531 23.1875 30.300781 21.113281 30.300781 L 16.601562 30.300781 C 14.523438 30.300781 14.523438 27.144531 16.601562 27.144531 Z M 9.5625 20.839844 L 18.765625 20.839844 C 20.839844 20.839844 20.839844 23.992188 18.765625 23.992188 L 9.5625 23.992188 C 7.488281 23.992188 7.488281 20.839844 9.5625 20.839844 Z M 18.8125 46.15625 C 20.164062 46.15625 22.464844 45.796875 22.464844 47.734375 C 22.464844 49.667969 20.210938 49.308594 18.8125 49.308594 C 16.691406 49.308594 16.691406 46.15625 18.8125 46.15625 Z M 18.8125 46.15625 " fill-opacity="1" fill-rule="evenodd"/></g></svg>